<svg width="171" height="30" viewBox="0 0 171 30" fill="none" xmlns="http://www.w3.org/2000/svg">
<path d="M0 29.2032V2.16284H14.9998V6.4833H4.73963V13.3598H13.5804V17.7217H4.73963V24.8776H14.9998V29.2032H0Z" fill="black"/>
<path d="M29.5134 29.2031L25.8936 22.4818H25.6333L22.0135 29.2031H17.3475L23.0547 19.0203L17.4949 9.15308H22.4212L25.8543 15.5225H26.0802L29.5134 9.15308H34.1794L28.6932 18.9789L34.4004 29.1979H29.5134V29.2031Z" fill="black"/>
<path d="M46.08 29.3636C45.1861 29.4671 44.3364 29.5189 43.5408 29.5189C41.3993 29.5189 39.8227 29.1515 38.8011 28.4168C37.7795 27.682 37.1214 26.6161 36.8218 25.2139C36.5222 23.8117 36.3748 21.799 36.3748 19.1808C36.3748 16.5627 36.5418 14.6068 36.8807 13.1684C37.2147 11.73 37.8876 10.6486 38.8944 9.92418C39.9013 9.20497 41.4239 8.84277 43.4671 8.84277C44.3119 8.84277 45.1763 8.89452 46.0604 8.998C46.9444 9.10148 47.6566 9.24636 48.2067 9.42746V13.1218C47.136 12.9097 45.9572 12.8062 44.6606 12.8062C43.4916 12.8062 42.6518 12.9563 42.141 13.2564C41.6302 13.5565 41.2962 14.136 41.1341 14.9845C40.972 15.8383 40.8934 17.2301 40.8934 19.1705C40.8934 21.1108 40.9818 22.544 41.1537 23.3978C41.3257 24.2515 41.6695 24.8207 42.1803 25.1053C42.6911 25.395 43.5309 25.5347 44.6999 25.5347C45.9916 25.5347 47.2097 25.4416 48.3541 25.2605V28.9135C47.7303 29.0998 46.9739 29.2395 46.08 29.3481V29.3636Z" fill="black"/>
<path d="M52.0132 4.48086V0H56.6005V4.48086H52.0132ZM52.0524 29.2032V9.15833H56.5661V29.2032H52.0524Z" fill="black"/>
<path d="M88.0933 20.7122H77.6808C77.6808 22.2852 77.7594 23.3769 77.9215 23.9927C78.0836 24.6084 78.4667 25.0275 79.0757 25.25C79.6847 25.4725 80.7505 25.5863 82.2682 25.5863C83.8841 25.5863 85.6277 25.4828 87.4941 25.2707V28.9237C86.7721 29.11 85.8291 29.2497 84.6601 29.3583C83.4912 29.4618 82.3566 29.5135 81.2663 29.5135C78.8056 29.5135 77.008 29.1772 75.8734 28.5098C74.7437 27.8423 74.007 26.8178 73.673 25.4415C73.339 24.0651 73.1671 21.9903 73.1671 19.2117C73.1671 16.4332 73.3341 14.4618 73.673 13.0596C74.007 11.6574 74.7241 10.6019 75.8194 9.89299C76.9146 9.18412 78.6189 8.83228 80.9323 8.83228C83.2456 8.83228 84.832 9.17377 85.8389 9.85159C86.8458 10.5346 87.4744 11.5487 87.7249 12.8992C87.9705 14.2497 88.0982 16.3504 88.0982 19.2065V20.7019L88.0933 20.7122ZM78.7663 13.0855C78.3439 13.3235 78.0639 13.7529 77.9264 14.3842C77.7889 15.0154 77.7103 16.0503 77.6857 17.4887H83.8399C83.8399 16.0503 83.7564 14.9999 83.5992 14.3428C83.4372 13.6908 83.1523 13.2562 82.7397 13.0441C82.3272 12.8371 81.6985 12.7284 80.8537 12.7284C79.8861 12.7284 79.1887 12.8475 78.7663 13.0803V13.0855Z" fill="black"/>
<path d="M112.081 29.3429C111.06 29.4619 110.102 29.5188 109.208 29.5188C106.448 29.5188 104.424 29.1255 103.147 28.3391C101.865 27.5526 101.006 26.2176 100.574 24.3291C100.136 22.4405 99.9203 19.5584 99.9203 15.683C99.9203 11.8075 100.136 8.93065 100.574 7.05759C101.011 5.18453 101.875 3.84958 103.167 3.04758C104.459 2.25076 106.477 1.84717 109.213 1.84717C110.156 1.84717 111.128 1.91443 112.121 2.04379C113.118 2.17314 113.913 2.33354 114.508 2.51464V6.52464C112.617 6.28663 111.212 6.1728 110.293 6.1728C108.427 6.1728 107.135 6.36424 106.413 6.74196C105.691 7.11968 105.225 7.92168 105.014 9.13761C104.802 10.3535 104.694 12.5371 104.694 15.683C104.694 18.8289 104.797 21.0072 105.014 22.2283C105.225 23.4494 105.691 24.2463 106.413 24.624C107.135 25.0069 108.427 25.1931 110.293 25.1931C111.737 25.1931 113.181 25.0741 114.62 24.8413V28.8927C113.948 29.0738 113.103 29.229 112.081 29.3429Z" fill="black"/>
<path d="M120.328 28.634C119.257 28.0442 118.574 27.0766 118.275 25.7261C117.975 24.3757 117.828 22.1973 117.828 19.1808C117.828 16.1642 117.975 13.9445 118.275 12.5992C118.574 11.2539 119.257 10.2863 120.328 9.71199C121.398 9.13766 123.152 8.8479 125.588 8.8479C128.024 8.8479 129.743 9.13766 130.809 9.71199C131.88 10.2863 132.562 11.2591 132.862 12.6199C133.162 13.9807 133.309 16.1694 133.309 19.1859C133.309 22.2025 133.162 24.3808 132.862 25.7313C132.562 27.0818 131.88 28.0493 130.809 28.6392C129.738 29.2291 128 29.524 125.588 29.524C123.176 29.524 121.398 29.2291 120.328 28.6392V28.634ZM127.867 25.157C128.289 24.8931 128.55 24.3705 128.653 23.584C128.751 22.7975 128.8 21.3281 128.8 19.1808C128.8 17.0335 128.751 15.533 128.653 14.7568C128.555 13.9859 128.299 13.4685 127.887 13.2046C127.474 12.9407 126.713 12.8113 125.593 12.8113C124.473 12.8113 123.702 12.9407 123.28 13.2046C122.857 13.4685 122.597 13.9859 122.494 14.7568C122.395 15.5278 122.346 17.0024 122.346 19.1808C122.346 21.3591 122.395 22.7975 122.494 23.584C122.592 24.3705 122.852 24.8931 123.28 25.157C123.702 25.4209 124.473 25.5502 125.593 25.5502C126.713 25.5502 127.445 25.4209 127.867 25.157Z" fill="black"/>
<path d="M139.095 28.6133C138.274 28.0131 137.675 26.9679 137.302 25.4881C136.929 24.0083 136.742 21.9179 136.742 19.217C136.742 16.516 136.924 14.4671 137.282 12.9872C137.641 11.5074 138.225 10.4467 139.036 9.80511C139.846 9.16351 140.971 8.8427 142.415 8.8427C143.608 8.8427 144.605 9.03415 145.401 9.41187C146.197 9.78958 146.821 10.4415 147.267 11.3574H147.528V0H152.007V29.2032H147.827L147.68 26.7247H147.42C146.698 28.5874 145.067 29.5136 142.533 29.5136C141.064 29.5136 139.92 29.2135 139.1 28.6081L139.095 28.6133ZM146.202 24.9603C146.614 24.7223 146.919 24.3291 147.115 23.7806C147.263 23.3098 147.371 22.7147 147.434 21.9903C147.498 21.2711 147.528 20.3346 147.528 19.1808C147.528 18.1045 147.508 17.2508 147.474 16.604C147.434 15.9624 147.341 15.4191 147.194 14.9741C147.017 14.2911 146.722 13.8099 146.3 13.5202C145.878 13.2304 145.254 13.0855 144.434 13.0855C143.412 13.0855 142.7 13.2097 142.287 13.4581C141.88 13.7065 141.604 14.229 141.467 15.031C141.329 15.8279 141.261 17.2146 141.261 19.1756C141.261 21.1366 141.329 22.5647 141.467 23.3615C141.604 24.1635 141.88 24.6861 142.287 24.9345C142.7 25.1828 143.412 25.307 144.434 25.307C145.205 25.307 145.794 25.188 146.207 24.9552L146.202 24.9603Z" fill="black"/>
<path d="M170.995 20.7122H160.583C160.583 22.2852 160.661 23.3769 160.823 23.9927C160.985 24.6084 161.368 25.0275 161.978 25.25C162.587 25.4725 163.652 25.5863 165.17 25.5863C166.786 25.5863 168.529 25.4828 170.396 25.2707V28.9237C169.674 29.11 168.731 29.2497 167.562 29.3583C166.393 29.4618 165.258 29.5135 164.168 29.5135C161.707 29.5135 159.91 29.1772 158.775 28.5098C157.646 27.8423 156.909 26.8178 156.575 25.4415C156.241 24.0651 156.069 21.9903 156.069 19.2117C156.069 16.4332 156.236 14.4618 156.575 13.0596C156.909 11.6574 157.626 10.6019 158.721 9.89299C159.816 9.18412 161.521 8.83228 163.834 8.83228C166.147 8.83228 167.734 9.17377 168.741 9.85159C169.748 10.5346 170.376 11.5487 170.627 12.8992C170.872 14.2497 171 16.3504 171 19.2065V20.7019L170.995 20.7122ZM161.668 13.0855C161.246 13.3235 160.966 13.7529 160.828 14.3842C160.691 15.0154 160.612 16.0503 160.588 17.4887H166.742C166.742 16.0503 166.658 14.9999 166.501 14.3428C166.339 13.6908 166.054 13.2562 165.642 13.0441C165.229 12.8371 164.6 12.7284 163.755 12.7284C162.788 12.7284 162.09 12.8475 161.668 13.0803V13.0855Z" fill="black"/>
<path d="M67.4452 26.1297C68.7026 26.1297 69.7831 25.8658 70.79 25.3743L70.4658 29.2032C69.2772 29.7309 67.9462 30 66.7232 30C62.6957 30 60.1761 27.8786 60.1761 23.5581V5.62952L64.6702 4.98792V10.1414H70.8194L70.4953 13.665H64.6702V22.9838C64.6702 25.3691 65.9668 26.1297 67.4403 26.1297H67.4452Z" fill="black"/>
</svg>
